<svg xmlns="http://www.w3.org/2000/svg" xmlns:xlink="http://www.w3.org/1999/xlink" zoomAndPan="magnify" preserveAspectRatio="xMidYMid meet" version="1.0" viewBox="117.79 148.85 127.67 28.77"><defs><g/></defs><g fill="#ff5757" fill-opacity="1"><g transform="translate(116.35162, 177.049997)"><g><path d="M 4.484375 -19.984375 C 4.484375 -20.773438 4.394531 -21.300781 4.21875 -21.5625 C 4.039062 -21.832031 3.671875 -21.96875 3.109375 -21.96875 L 1.96875 -21.921875 L 1.78125 -22.234375 L 2.046875 -24.46875 L 7.140625 -24.390625 C 7.828125 -24.390625 8.765625 -24.425781 9.953125 -24.5 C 11.140625 -24.582031 11.925781 -24.632812 12.3125 -24.65625 L 12.125 -22.15625 C 11.1875 -21.976562 10.550781 -21.742188 10.21875 -21.453125 C 9.894531 -21.160156 9.71875 -20.660156 9.6875 -19.953125 L 9.3125 -5.015625 C 9.28125 -3.972656 9.375 -3.273438 9.59375 -2.921875 C 9.8125 -2.566406 10.210938 -2.390625 10.796875 -2.390625 C 11.171875 -2.390625 11.488281 -2.398438 11.75 -2.421875 C 12.019531 -2.453125 12.195312 -2.484375 12.28125 -2.515625 L 12.46875 -2.28125 L 12.125 0.109375 C 11.71875 0.109375 10.960938 0.0859375 9.859375 0.046875 C 8.753906 0.015625 7.695312 0 6.6875 0 C 5.550781 0 4.476562 0.0078125 3.46875 0.03125 C 2.46875 0.0625 1.789062 0.0859375 1.4375 0.109375 L 1.78125 -2.28125 C 2.539062 -2.382812 3.109375 -2.53125 3.484375 -2.71875 C 3.867188 -2.90625 4.128906 -3.195312 4.265625 -3.59375 C 4.410156 -3.988281 4.484375 -4.550781 4.484375 -5.28125 Z M 15.84375 -18.96875 C 16.53125 -19.695312 16.875 -20.328125 16.875 -20.859375 C 16.875 -21.210938 16.707031 -21.484375 16.375 -21.671875 C 16.050781 -21.867188 15.53125 -21.976562 14.8125 -22 L 14.703125 -22.265625 L 15.015625 -24.59375 C 15.367188 -24.5625 16.078125 -24.519531 17.140625 -24.46875 C 18.203125 -24.414062 19.0625 -24.390625 19.71875 -24.390625 C 20.582031 -24.390625 21.453125 -24.410156 22.328125 -24.453125 C 23.203125 -24.492188 23.800781 -24.523438 24.125 -24.546875 L 24.359375 -24.125 L 24.046875 -22 C 23.296875 -21.695312 22.570312 -21.238281 21.875 -20.625 C 21.175781 -20.019531 20.269531 -19.0625 19.15625 -17.75 L 15.046875 -13.1875 L 20.171875 -5.515625 C 20.960938 -4.347656 21.679688 -3.507812 22.328125 -3 C 22.972656 -2.488281 23.710938 -2.222656 24.546875 -2.203125 L 24.78125 -1.859375 L 24.46875 0.109375 C 24.09375 0.160156 23.335938 0.25 22.203125 0.375 C 21.078125 0.5 20.378906 0.5625 20.109375 0.5625 C 19.347656 0.5625 18.625 0.304688 17.9375 -0.203125 C 17.25 -0.722656 16.566406 -1.53125 15.890625 -2.625 L 10.0625 -12.015625 L 10.1875 -12.8125 Z M 15.84375 -18.96875 "/></g></g></g><g fill="#ff5757" fill-opacity="1"><g transform="translate(141.312521, 177.049997)"><g><path d="M 1.703125 -2.125 C 2.796875 -2.300781 3.523438 -2.617188 3.890625 -3.078125 C 4.265625 -3.535156 4.453125 -4.320312 4.453125 -5.4375 L 4.484375 -19.90625 C 4.484375 -20.71875 4.398438 -21.265625 4.234375 -21.546875 C 4.066406 -21.828125 3.742188 -21.96875 3.265625 -21.96875 C 3.015625 -21.96875 2.773438 -21.953125 2.546875 -21.921875 C 2.316406 -21.898438 2.164062 -21.890625 2.09375 -21.890625 L 1.859375 -22.234375 L 2.171875 -24.515625 C 2.617188 -24.484375 3.492188 -24.453125 4.796875 -24.421875 C 6.109375 -24.398438 7.523438 -24.390625 9.046875 -24.390625 C 14.234375 -24.390625 17.789062 -24.546875 19.71875 -24.859375 L 20.03125 -24.4375 C 19.945312 -24.03125 19.8125 -23.132812 19.625 -21.75 C 19.4375 -20.375 19.304688 -18.953125 19.234375 -17.484375 L 15.84375 -17.296875 C 15.84375 -17.421875 15.851562 -17.632812 15.875 -17.9375 C 15.90625 -18.238281 15.921875 -18.539062 15.921875 -18.84375 C 15.921875 -19.582031 15.828125 -20.113281 15.640625 -20.4375 C 15.453125 -20.769531 15.082031 -20.992188 14.53125 -21.109375 C 13.988281 -21.222656 13.097656 -21.28125 11.859375 -21.28125 C 11.203125 -21.28125 10.742188 -21.253906 10.484375 -21.203125 C 10.234375 -21.148438 10.0625 -21.035156 9.96875 -20.859375 C 9.882812 -20.679688 9.828125 -20.390625 9.796875 -19.984375 L 9.53125 -13.375 L 13.109375 -13.34375 C 13.585938 -13.34375 14.296875 -13.390625 15.234375 -13.484375 C 16.171875 -13.585938 16.789062 -13.65625 17.09375 -13.6875 L 17.359375 -13.34375 L 16.828125 -10.109375 C 16.523438 -10.128906 15.9375 -10.148438 15.0625 -10.171875 C 14.1875 -10.203125 13.269531 -10.21875 12.3125 -10.21875 C 11.394531 -10.21875 10.429688 -10.128906 9.421875 -9.953125 L 9.3125 -5.3125 C 9.3125 -4.351562 9.414062 -3.707031 9.625 -3.375 C 9.84375 -3.050781 10.28125 -2.890625 10.9375 -2.890625 C 11.34375 -2.890625 11.8125 -2.914062 12.34375 -2.96875 C 12.875 -3.019531 13.226562 -3.054688 13.40625 -3.078125 L 13.75 -2.703125 L 13.34375 0.15625 C 12.90625 0.125 12.097656 0.0859375 10.921875 0.046875 C 9.742188 0.015625 8.570312 0 7.40625 0 C 6.238281 0 5.039062 0.0546875 3.8125 0.171875 C 2.582031 0.285156 1.789062 0.367188 1.4375 0.421875 Z M 1.703125 -2.125 "/></g></g></g><g fill="#ff5757" fill-opacity="1"><g transform="translate(161.486394, 177.049997)"><g><path d="M 6.453125 0.453125 C 5.546875 0.453125 4.71875 0.375 3.96875 0.21875 C 3.21875 0.0703125 2.628906 -0.0820312 2.203125 -0.25 C 1.773438 -0.414062 1.507812 -0.519531 1.40625 -0.5625 L 1.171875 -0.953125 C 1.273438 -1.628906 1.367188 -2.425781 1.453125 -3.34375 C 1.546875 -4.257812 1.617188 -5.132812 1.671875 -5.96875 L 3.765625 -6.15625 C 3.785156 -3.59375 4.910156 -2.3125 7.140625 -2.3125 C 7.878906 -2.3125 8.488281 -2.46875 8.96875 -2.78125 C 9.445312 -3.101562 9.6875 -3.503906 9.6875 -3.984375 C 9.6875 -4.492188 9.429688 -4.957031 8.921875 -5.375 C 8.421875 -5.789062 7.410156 -6.367188 5.890625 -7.109375 C 4.367188 -7.816406 3.265625 -8.566406 2.578125 -9.359375 C 1.898438 -10.160156 1.5625 -11.09375 1.5625 -12.15625 C 1.5625 -13.300781 1.890625 -14.304688 2.546875 -15.171875 C 3.203125 -16.046875 4.125 -16.726562 5.3125 -17.21875 C 6.507812 -17.71875 7.867188 -17.96875 9.390625 -17.96875 C 10.117188 -17.96875 10.800781 -17.914062 11.4375 -17.8125 C 12.070312 -17.71875 12.570312 -17.613281 12.9375 -17.5 C 13.300781 -17.382812 13.535156 -17.316406 13.640625 -17.296875 L 13.828125 -16.90625 C 13.773438 -16.625 13.664062 -15.992188 13.5 -15.015625 C 13.34375 -14.046875 13.210938 -13.046875 13.109375 -12.015625 L 10.984375 -11.859375 L 11.015625 -12.546875 C 11.015625 -13.429688 10.800781 -14.082031 10.375 -14.5 C 9.945312 -14.914062 9.273438 -15.125 8.359375 -15.125 C 7.703125 -15.125 7.144531 -14.960938 6.6875 -14.640625 C 6.226562 -14.328125 6 -13.929688 6 -13.453125 C 6 -12.972656 6.203125 -12.53125 6.609375 -12.125 C 7.015625 -11.71875 7.6875 -11.285156 8.625 -10.828125 C 10.125 -10.117188 11.269531 -9.484375 12.0625 -8.921875 C 12.863281 -8.367188 13.421875 -7.804688 13.734375 -7.234375 C 14.054688 -6.671875 14.21875 -5.992188 14.21875 -5.203125 C 14.21875 -4.160156 13.875 -3.207031 13.1875 -2.34375 C 12.5 -1.488281 11.5625 -0.804688 10.375 -0.296875 C 9.1875 0.203125 7.878906 0.453125 6.453125 0.453125 Z M 6.453125 0.453125 "/></g></g></g><g fill="#ff5757" fill-opacity="1"><g transform="translate(176.987232, 177.049997)"><g><path d="M 0.953125 -2.125 C 1.503906 -2.195312 1.90625 -2.332031 2.15625 -2.53125 C 2.414062 -2.738281 2.582031 -3.023438 2.65625 -3.390625 C 2.738281 -3.765625 2.78125 -4.332031 2.78125 -5.09375 L 2.78125 -22.71875 C 2.78125 -23.382812 2.695312 -23.878906 2.53125 -24.203125 C 2.363281 -24.535156 2.085938 -24.726562 1.703125 -24.78125 C 1.453125 -24.832031 1.238281 -24.859375 1.0625 -24.859375 L 0.234375 -24.8125 C 0.203125 -24.914062 0.1875 -25.082031 0.1875 -25.3125 L 0.375 -26.984375 C 1.820312 -27.160156 3.34375 -27.382812 4.9375 -27.65625 C 6.53125 -27.9375 7.570312 -28.117188 8.0625 -28.203125 L 8.328125 -27.46875 C 7.992188 -27.0625 7.710938 -24.628906 7.484375 -20.171875 C 7.253906 -15.710938 7.140625 -10.316406 7.140625 -3.984375 C 7.140625 -3.359375 7.226562 -2.914062 7.40625 -2.65625 C 7.582031 -2.40625 7.875 -2.28125 8.28125 -2.28125 C 8.457031 -2.28125 8.644531 -2.289062 8.84375 -2.3125 C 9.050781 -2.34375 9.191406 -2.359375 9.265625 -2.359375 L 9.390625 -2.125 L 8.96875 0.15625 C 8.6875 0.125 8.144531 0.0859375 7.34375 0.046875 C 6.550781 0.015625 5.722656 0 4.859375 0 C 4.078125 0 3.242188 0.03125 2.359375 0.09375 C 1.472656 0.15625 0.898438 0.203125 0.640625 0.234375 Z M 7.828125 -9.765625 L 11.515625 -13.484375 C 11.816406 -13.796875 12.023438 -14.046875 12.140625 -14.234375 C 12.253906 -14.421875 12.3125 -14.601562 12.3125 -14.78125 C 12.3125 -15.0625 12.160156 -15.257812 11.859375 -15.375 C 11.554688 -15.488281 11.035156 -15.546875 10.296875 -15.546875 L 10.1875 -15.734375 L 10.53125 -17.59375 C 10.832031 -17.59375 11.421875 -17.578125 12.296875 -17.546875 C 13.171875 -17.523438 14.113281 -17.515625 15.125 -17.515625 C 15.832031 -17.515625 16.613281 -17.539062 17.46875 -17.59375 C 18.332031 -17.644531 18.894531 -17.679688 19.15625 -17.703125 L 19.265625 -17.515625 L 18.96875 -15.390625 C 18.070312 -15.054688 17.207031 -14.546875 16.375 -13.859375 C 15.539062 -13.179688 14.488281 -12.222656 13.21875 -10.984375 C 13.21875 -10.984375 12.863281 -10.628906 12.15625 -9.921875 L 15.390625 -4.984375 C 16.046875 -4.015625 16.675781 -3.304688 17.28125 -2.859375 C 17.894531 -2.421875 18.566406 -2.175781 19.296875 -2.125 L 19.453125 -1.828125 L 19.1875 0.03125 C 18.988281 0.0820312 18.570312 0.164062 17.9375 0.28125 C 17.300781 0.394531 16.796875 0.46875 16.421875 0.5 C 15.753906 0.519531 15.195312 0.46875 14.75 0.34375 C 14.132812 0.21875 13.59375 -0.0625 13.125 -0.5 C 12.65625 -0.945312 12.144531 -1.640625 11.59375 -2.578125 L 7.75 -8.890625 Z M 7.828125 -9.765625 "/></g></g></g><g fill="#ff5757" fill-opacity="1"><g transform="translate(196.629218, 177.049997)"><g><path d="M 0.875 -1.96875 C 1.457031 -2.101562 1.878906 -2.289062 2.140625 -2.53125 C 2.410156 -2.769531 2.582031 -3.070312 2.65625 -3.4375 C 2.738281 -3.800781 2.78125 -4.351562 2.78125 -5.09375 L 2.78125 -22.71875 C 2.78125 -23.40625 2.722656 -23.894531 2.609375 -24.1875 C 2.492188 -24.476562 2.269531 -24.664062 1.9375 -24.75 C 1.601562 -24.84375 1.054688 -24.863281 0.296875 -24.8125 L 0.15625 -24.96875 L 0.375 -26.984375 C 3.445312 -27.390625 6.007812 -27.796875 8.0625 -28.203125 L 8.328125 -27.46875 C 7.972656 -26.632812 7.6875 -24.050781 7.46875 -19.71875 C 7.25 -15.382812 7.140625 -10.140625 7.140625 -3.984375 C 7.140625 -3.359375 7.226562 -2.914062 7.40625 -2.65625 C 7.582031 -2.40625 7.875 -2.28125 8.28125 -2.28125 L 9.53125 -2.359375 L 9.65625 -2.125 L 9.234375 0.109375 L 7.984375 0.078125 C 6.566406 0.0234375 5.550781 0 4.9375 0 C 3.976562 0 2.535156 0.113281 0.609375 0.34375 Z M 0.875 -1.96875 "/></g></g></g><g fill="#ff5757" fill-opacity="1"><g transform="translate(206.62118, 177.049997)"><g><path d="M 14.515625 0.453125 C 13.398438 0.453125 12.519531 0.207031 11.875 -0.28125 C 11.226562 -0.78125 10.84375 -1.507812 10.71875 -2.46875 L 10.40625 -2.578125 C 9.601562 -1.742188 8.820312 -1.054688 8.0625 -0.515625 C 7.300781 0.0234375 6.691406 0.296875 6.234375 0.296875 C 4.734375 0.296875 3.488281 -0.222656 2.5 -1.265625 C 1.519531 -2.316406 1.03125 -3.628906 1.03125 -5.203125 C 1.03125 -5.992188 1.226562 -6.671875 1.625 -7.234375 C 2.03125 -7.804688 2.566406 -8.179688 3.234375 -8.359375 L 10.5625 -10.0625 L 10.609375 -10.984375 C 10.609375 -12.066406 10.316406 -12.910156 9.734375 -13.515625 C 9.148438 -14.128906 8.347656 -14.4375 7.328125 -14.4375 C 6.648438 -14.4375 5.910156 -14.265625 5.109375 -13.921875 C 4.304688 -13.578125 3.566406 -13.15625 2.890625 -12.65625 L 2.546875 -12.8125 L 1.90625 -15.09375 C 3.164062 -15.800781 4.492188 -16.457031 5.890625 -17.0625 C 7.285156 -17.664062 8.273438 -17.96875 8.859375 -17.96875 C 10.960938 -17.96875 12.535156 -17.492188 13.578125 -16.546875 C 14.628906 -15.597656 15.15625 -14.351562 15.15625 -12.8125 C 15.15625 -12.25 15.039062 -11.109375 14.8125 -9.390625 C 14.539062 -6.929688 14.40625 -5.460938 14.40625 -4.984375 C 14.40625 -4.492188 14.53125 -4.109375 14.78125 -3.828125 C 15.03125 -3.554688 15.359375 -3.421875 15.765625 -3.421875 C 16.066406 -3.421875 16.390625 -3.488281 16.734375 -3.625 C 17.078125 -3.769531 17.363281 -3.914062 17.59375 -4.0625 L 18.15625 -3.265625 C 17.707031 -2.453125 17.144531 -1.671875 16.46875 -0.921875 C 15.800781 -0.179688 15.148438 0.273438 14.515625 0.453125 Z M 7.640625 -3.3125 C 8.015625 -3.3125 8.460938 -3.410156 8.984375 -3.609375 C 9.503906 -3.804688 9.96875 -4.070312 10.375 -4.40625 L 10.484375 -8.015625 L 6.421875 -6.875 C 5.816406 -6.726562 5.515625 -6.3125 5.515625 -5.625 C 5.515625 -4.96875 5.707031 -4.414062 6.09375 -3.96875 C 6.488281 -3.53125 7.003906 -3.3125 7.640625 -3.3125 Z M 7.640625 -3.3125 "/></g></g></g><g fill="#ff5757" fill-opacity="1"><g transform="translate(224.971425, 177.049997)"><g><path d="M 16.6875 0.453125 C 14.425781 0.453125 13.15625 -0.457031 12.875 -2.28125 L 12.65625 -2.359375 C 10.195312 -0.585938 8.710938 0.296875 8.203125 0.296875 C 6.003906 0.296875 4.25 -0.445312 2.9375 -1.9375 C 1.632812 -3.4375 0.984375 -5.460938 0.984375 -8.015625 C 0.984375 -9.890625 1.394531 -11.582031 2.21875 -13.09375 C 3.039062 -14.601562 4.179688 -15.78125 5.640625 -16.625 C 7.097656 -17.46875 8.738281 -17.890625 10.5625 -17.890625 C 11.164062 -17.890625 11.828125 -17.851562 12.546875 -17.78125 L 12.546875 -22.6875 C 12.546875 -23.46875 12.421875 -24.015625 12.171875 -24.328125 C 11.929688 -24.648438 11.519531 -24.8125 10.9375 -24.8125 C 10.738281 -24.8125 10.550781 -24.796875 10.375 -24.765625 C 10.195312 -24.742188 10.082031 -24.722656 10.03125 -24.703125 L 10.265625 -26.9375 C 11.753906 -27.113281 13.257812 -27.34375 14.78125 -27.625 C 16.300781 -27.90625 17.289062 -28.097656 17.75 -28.203125 L 18.09375 -27.546875 C 17.757812 -27.066406 17.476562 -24.597656 17.25 -20.140625 C 17.019531 -15.679688 16.90625 -10.628906 16.90625 -4.984375 C 16.90625 -4.492188 17.015625 -4.109375 17.234375 -3.828125 C 17.453125 -3.554688 17.75 -3.421875 18.125 -3.421875 C 18.40625 -3.421875 18.671875 -3.46875 18.921875 -3.5625 C 19.171875 -3.664062 19.378906 -3.769531 19.546875 -3.875 C 19.710938 -3.976562 19.820312 -4.039062 19.875 -4.0625 L 20.484375 -3.265625 C 20.410156 -3.117188 20.191406 -2.789062 19.828125 -2.28125 C 19.472656 -1.769531 19.007812 -1.234375 18.4375 -0.671875 C 17.875 -0.117188 17.289062 0.253906 16.6875 0.453125 Z M 9.609375 -3.1875 C 10.015625 -3.1875 10.4375 -3.28125 10.875 -3.46875 C 11.320312 -3.664062 11.691406 -3.863281 11.984375 -4.0625 C 12.273438 -4.269531 12.460938 -4.410156 12.546875 -4.484375 L 12.546875 -14.09375 C 12.492188 -14.125 12.335938 -14.1875 12.078125 -14.28125 C 11.828125 -14.382812 11.5 -14.488281 11.09375 -14.59375 C 10.6875 -14.695312 10.234375 -14.75 9.734375 -14.75 C 8.484375 -14.75 7.515625 -14.285156 6.828125 -13.359375 C 6.148438 -12.429688 5.8125 -11.117188 5.8125 -9.421875 C 5.8125 -7.546875 6.160156 -6.035156 6.859375 -4.890625 C 7.554688 -3.753906 8.472656 -3.1875 9.609375 -3.1875 Z M 9.609375 -3.1875 "/></g></g></g></svg>